<svg width="89" height="89" viewBox="0 0 89 89" fill="none" xmlns="http://www.w3.org/2000/svg">
<!-- <path fill-rule="evenodd" clip-rule="evenodd" d="M9.49505 0.000695735C9.19706 0.0279738 8.92892 0.249639 8.85551 0.529057C8.22977 2.87059 8.47036 4.8125 9.54067 6.33127C9.7308 6.60111 9.9452 6.86063 10.1802 7.10193C9.66199 7.04346 9.16315 7.01421 8.68422 7.01397C6.25711 7.01223 4.33217 7.73523 2.92897 8.98462C0.434358 11.206 -0.324207 14.8655 0.119773 18.5083C0.5638 22.1508 2.21576 25.8482 4.83579 28.2955C7.39442 30.6859 10.9971 31.8085 14.9872 30.2994C18.9775 31.8085 22.58 30.686 25.1386 28.2955C27.7586 25.8479 29.4106 22.1503 29.8546 18.5083C30.2986 14.8658 29.54 11.2061 27.0454 8.98462C25.6422 7.735 23.7172 7.01199 21.2901 7.01397C19.6629 7.01496 17.8111 7.34474 15.7288 8.05986C15.7288 7.87457 15.7329 7.69074 15.7288 7.50941V7.49832C15.8769 5.78053 16.4506 4.88918 17.3961 4.18437C18.3566 3.46824 19.7924 2.98193 21.5642 2.40068C21.8909 2.30091 22.1155 1.9571 22.0665 1.63001C22.0176 1.30292 21.7013 1.03136 21.3587 1.02448C21.2692 1.0235 21.1797 1.03849 21.0961 1.06847C19.3269 1.64869 17.7428 2.14144 16.4943 3.07235C16.0174 3.42795 15.6124 3.85529 15.2723 4.36061C15.0893 3.78874 14.8375 3.26134 14.496 2.7642C13.5796 1.43053 12.024 0.476277 9.71132 0.0117958C9.66238 0.00319444 9.61246 -0.000491423 9.56298 0.000737253C9.54032 -0.000245751 9.51737 -0.000245751 9.49442 0.000737253L9.49505 0.000695735ZM10.1116 1.55312C11.7373 1.9849 12.6746 2.66144 13.2749 3.53485C13.9468 4.51295 14.2188 5.8373 14.2685 7.47619V7.61944C14.2721 7.75878 14.2685 7.89519 14.2685 8.03773C12.6091 7.32699 11.4356 6.50939 10.7515 5.53838C10.0307 4.51532 9.76912 3.27997 10.112 1.55278L10.1116 1.55312ZM6.00072 12.1884V12.1882C6.05014 12.1833 6.09987 12.1833 6.1493 12.1882C6.42204 12.1992 6.66546 12.356 6.78091 12.5946C6.89611 12.8331 6.86401 13.1137 6.69732 13.3223C5.22859 15.1763 5.35045 17.3207 6.18346 19.4105C7.01646 21.5003 8.59168 23.4413 9.81463 24.5189H9.81492C10.1124 24.7809 10.134 25.2252 9.86386 25.5132C9.59342 25.8012 9.13256 25.8244 8.8328 25.5649C7.43572 24.3339 5.75597 22.2821 4.81308 19.917C3.87018 17.5519 3.7015 14.786 5.53236 12.4745H5.53261C5.6435 12.3234 5.81171 12.2207 6.00062 12.1882L6.00072 12.1884Z" fill="#D80000"/> -->
<path fill="#EEC1AE" opacity="1.000000" stroke="none" 
	d="
M1.000000,64.000000 
	C1.000000,54.979103 1.000000,45.958210 1.292035,36.796570 
	C3.369793,32.963646 4.864650,29.093443 6.995231,25.612326 
	C13.655173,14.730765 22.449530,6.368559 35.152115,2.874583 
	C35.574654,2.758361 35.723549,1.647321 36.000000,1.000000 
	C45.020897,1.000000 54.041790,1.000000 63.203423,1.292030 
	C67.038544,3.372322 70.908287,4.873391 74.394768,7.002170 
	C85.281006,13.649109 93.636902,22.438881 97.125099,35.138798 
	C97.242256,35.565342 98.352600,35.719093 99.000000,36.000000 
	C99.000000,45.020897 99.000000,54.041790 98.707893,63.203522 
	C96.627312,67.039047 95.127480,70.910194 92.996765,74.395660 
	C86.343597,85.279068 77.561615,93.649162 64.849831,97.124725 
	C64.427238,97.240273 64.277130,98.352417 64.000000,99.000000 
	C54.979103,99.000000 45.958210,99.000000 36.796448,98.707886 
	C32.960911,96.627289 29.089828,95.127403 25.604315,92.996758 
	C14.720839,86.343880 6.351443,77.561508 2.874986,64.850479 
	C2.759350,64.427673 1.647487,64.277344 1.000000,64.000000 
M9.939711,41.643280 
	C9.920324,47.084564 9.113522,52.660633 10.017884,57.943790 
	C13.929412,80.794418 36.998764,95.311249 59.980209,89.811638 
	C82.468384,84.430061 96.117638,60.251740 89.182205,38.083126 
	C83.600197,20.240650 67.511917,8.648689 48.833549,9.011043 
	C30.551186,9.365715 15.255064,21.908785 9.939711,41.643280 
z"/>
<path fill="#F16F58" opacity="1.000000" stroke="none" 
	d="
M9.998473,41.225769 
	C15.255064,21.908785 30.551186,9.365715 48.833549,9.011043 
	C67.511917,8.648689 83.600197,20.240650 89.182205,38.083126 
	C96.117638,60.251740 82.468384,84.430061 59.980209,89.811638 
	C36.998764,95.311249 13.929412,80.794418 10.017884,57.943790 
	C9.113522,52.660633 9.920324,47.084564 9.998473,41.225769 
M48.700233,48.000668 
	C46.526608,49.123405 43.019176,49.845833 42.530441,51.474255 
	C41.969826,53.342155 43.519371,56.591766 45.166737,58.205444 
	C47.907242,60.889900 51.880081,60.979191 54.631516,58.349823 
	C56.378139,56.680698 56.762981,53.586567 57.758518,51.131481 
	C55.029404,50.086891 52.300285,49.042297 48.700233,48.000668 
M71.892769,40.555096 
	C67.425171,38.346645 63.269733,39.481194 62.303551,43.359489 
	C62.032642,44.446938 62.675442,45.762012 62.899120,46.972675 
	C63.943035,46.557732 65.398758,46.440208 65.953568,45.672016 
	C67.611320,43.376663 68.712448,42.967583 70.134773,45.851109 
	C70.481354,46.553738 71.882248,46.736313 72.798370,47.158009 
	C73.176605,46.159832 73.910126,45.134869 73.837433,44.170685 
	C73.757935,43.116047 72.933174,42.117592 71.892769,40.555096 
M26.501884,46.097923 
	C28.603237,45.591057 30.704588,45.084190 33.400761,44.433849 
	C33.084023,44.176853 33.419102,44.533428 33.825886,44.762867 
	C35.033272,45.443848 36.268902,46.074749 37.493492,46.725227 
	C37.521042,45.214310 38.183617,43.002361 37.446968,42.335072 
	C35.796986,40.840439 32.842751,38.776443 31.524584,39.375523 
	C29.311483,40.381332 27.959169,43.281139 26.501884,46.097923 
z"/>
<path fill="#D44053" opacity="1.000000" stroke="none" 
	d="
M49.135704,47.999184 
	C52.300285,49.042297 55.029404,50.086891 57.758518,51.131481 
	C56.762981,53.586567 56.378139,56.680698 54.631516,58.349823 
	C51.880081,60.979191 47.907242,60.889900 45.166737,58.205444 
	C43.519371,56.591766 41.969826,53.342155 42.530441,51.474255 
	C43.019176,49.845833 46.526608,49.123405 49.135704,47.999184 
z"/>
<path fill="#595150" opacity="1.000000" stroke="none" 
	d="
M72.162994,40.824875 
	C72.933174,42.117592 73.757935,43.116047 73.837433,44.170685 
	C73.910126,45.134869 73.176605,46.159832 72.798370,47.158009 
	C71.882248,46.736313 70.481354,46.553738 70.134773,45.851109 
	C68.712448,42.967583 67.611320,43.376663 65.953568,45.672016 
	C65.398758,46.440208 63.943035,46.557732 62.899120,46.972672 
	C62.675442,45.762012 62.032642,44.446938 62.303551,43.359489 
	C63.269733,39.481194 67.425171,38.346645 72.162994,40.824875 
z"/>
<path fill="#5B5150" opacity="1.000000" stroke="none" 
	d="
M26.373283,45.740990 
	C27.959169,43.281139 29.311483,40.381332 31.524584,39.375523 
	C32.842751,38.776443 35.796986,40.840439 37.446968,42.335072 
	C38.183617,43.002361 37.521042,45.214310 37.493492,46.725227 
	C36.268902,46.074749 35.033272,45.443848 33.825886,44.762867 
	C33.419102,44.533428 33.084023,44.176853 33.400761,44.433849 
	C30.704588,45.084190 28.603237,45.591057 26.373283,45.740990 
z"/>
</svg>
